HIERARCHY
ROOT Hips
{
    OFFSET 0.0 0.0 0.0
    CHANNELS 6 Xposition Yposition Zposition Zrotation Xrotation Yrotation
    JOINT LeftUpLeg
    {
        OFFSET 8.64259 1.95398 -2.38835
        CHANNELS 3 Zrotation Xrotation Yrotation
        JOINT LeftLeg
        {
            OFFSET 43.7702 0.0 0.0
            CHANNELS 3 Zrotation Xrotation Yrotation
            JOINT LeftFoot
            {
                OFFSET 40.6238 0.0 0.0
                CHANNELS 3 Zrotation Xrotation Yrotation
                JOINT LeftToeBase
                {
                    OFFSET 12.7242 0.0 0.0
                    CHANNELS 3 Zrotation Xrotation Yrotation
                    End Site
                    {
                        OFFSET 0 0 0
                    }
                }
            }
        }
    }
    JOINT RightUpLeg
    {
        OFFSET -8.2249 1.95398 -2.59336
        CHANNELS 3 Zrotation Xrotation Yrotation
        JOINT RightLeg
        {
            OFFSET 43.5653 0.0 0.0
            CHANNELS 3 Zrotation Xrotation Yrotation
            JOINT RightFoot
            {
                OFFSET 40.6238 0.0 0.0
                CHANNELS 3 Zrotation Xrotation Yrotation
                JOINT RightToeBase
                {
                    OFFSET 12.7242 0.0 0.0
                    CHANNELS 3 Zrotation Xrotation Yrotation
                    End Site
                    {
                        OFFSET 0 0 0
                    }
                }
            }
        }
    }
    JOINT Spine
    {
        OFFSET 0.165834 0.87714 6.61349
        CHANNELS 3 Zrotation Xrotation Yrotation
        JOINT Spine1
        {
            OFFSET 7.38962 1.71661e-05 0.0
            CHANNELS 3 Zrotation Xrotation Yrotation
            JOINT Spine2
            {
                OFFSET 11.9445 1.14441e-05 0.0
                CHANNELS 3 Zrotation Xrotation Yrotation
                JOINT Spine3
                {
                    OFFSET 14.7254 4.19617e-05 0.0
                    CHANNELS 3 Zrotation Xrotation Yrotation
                    JOINT Spine4
                    {
                        OFFSET 10.9679 0.0 0.0
                        CHANNELS 3 Zrotation Xrotation Yrotation
                        JOINT RightShoulder
                        {
                            OFFSET 2.46616 -1.6653 3.69651
                            CHANNELS 3 Zrotation Xrotation Yrotation
                            JOINT RightArm
                            {
                                OFFSET 13.0012 0.0 0.0
                                CHANNELS 3 Zrotation Xrotation Yrotation
                                JOINT RightForeArm
                                {
                                    OFFSET 28.7848 1.52588e-05 0.0
                                    CHANNELS 3 Zrotation Xrotation Yrotation
                                    JOINT RightHand
                                    {
                                        OFFSET 26.5688 1.52588e-05 0.0
                                        CHANNELS 3 Zrotation Xrotation Yrotation
                                        End Site
                                        {
                                            OFFSET 0 0 0
                                        }
                                    }
                                }
                            }
                        }
                        JOINT LeftShoulder
                        {
                            OFFSET 2.38034 -1.29275 -3.75231
                            CHANNELS 3 Zrotation Xrotation Yrotation
                            JOINT LeftArm
                            {
                                OFFSET 16.3182 6.10352e-05 0.0
                                CHANNELS 3 Zrotation Xrotation Yrotation
                                JOINT LeftForeArm
                                {
                                    OFFSET 27.0901 0.0 0.0
                                    CHANNELS 3 Zrotation Xrotation Yrotation
                                    JOINT LeftHand
                                    {
                                        OFFSET 24.5451 1.52588e-05 0.0
                                        CHANNELS 3 Zrotation Xrotation Yrotation
                                        End Site
                                        {
                                            OFFSET 0 0 0
                                        }
                                    }
                                }
                            }
                        }
                        JOINT Neck
                        {
                            OFFSET 5.0226 -0.0266342 0.0
                            CHANNELS 3 Zrotation Xrotation Yrotation
                            JOINT Head
                            {
                                OFFSET 6.69363 2.86102e-05 0.0
                                CHANNELS 3 Zrotation Xrotation Yrotation
                                End Site
                                {
                                    OFFSET 0 0 0
                                }
                            }
                        }
                    }
                }
            }
        }
    }
}
MOTION
Frames: 8
Frame Time: 0.03333333333333333
129.7071710196172 93.74130658446309 24.02385193940292 -145.64766012377197 -83.6922803779152 -150.71082456869507 3.1254680270974857 1.9480436273146797 63.861172460342495 29.114921322239127 1.8368281543948022 7.06485752733074 27.477338048234266 2.891396683497763 11.787055504133276 -0.0 0.0 -0.0 -10.950283901121853 -13.674893560527371 102.7231495086001 1.3168708287222741 -0.0067841774836897946 -0.5903148276220866 38.12122841376757 -0.036881567011246494 -0.10674483854252989 -0.0 0.0 -0.0 7.883517549967576 -5.927847406345242 -73.8452145505351 8.784432100620151 -0.5825355805450201 -7.573306147202172 3.6058565976004613 0.04403892142875748 1.3991226237933223 -9.123606601447088 -1.9131812109257718 23.639634093209647 -15.321792894391002 -17.475830456676967 -51.17743171440956 -99.73945455565772 -14.089647027752493 11.894626925134201 77.34026878824767 -73.4639231133076 -85.99680077093244 39.44490923099968 26.31669549436066 66.21842448575211 -0.0 0.0 -0.0 113.20215313369916 -21.060661830156935 -13.975287005508578 9.075087144385009 -1.9325612709536815 -23.996772688504176 44.07746491317346 16.518814099324857 39.45444544370905 -0.0 0.0 -0.0 -17.88724169311797 1.859739424861615 -11.776255923222786 -0.0 0.0 -0.0 
122.9206039647096 94.33043667544028 25.425036536410115 -121.1112788570709 -82.60251546879985 -126.06377428299326 1.2492897473467772 0.802592391511096 65.43532520410332 25.01959572514858 2.8564658922481936 12.823138702458845 5.29200199230479 1.0725769328459673 22.899669207414654 -0.0 0.0 -0.0 -13.301715616240873 -15.59160651143379 99.15854474422503 -3.420507896998744 -0.11724965373423604 3.925317824130314 19.92707404321222 6.681066303880866 36.75978478123995 -0.0 0.0 -0.0 7.476651699107031 -5.48515206829709 -72.49642519865935 7.602440660916508 -0.5041020733012783 -7.576285642728678 2.5147694008412027 0.03089743753666754 1.4077691359240616 -9.153473783293276 -1.6051333480513967 19.852063478241256 -14.72069827012497 -24.15851255849337 -52.372524591821296 -93.43097760023197 -16.47546309865502 15.529326177463798 54.61670751056617 -49.33277123371111 -83.30236564257989 25.221307791073137 15.69664413304582 63.2772966763614 -0.0 0.0 -0.0 101.71415534159111 -32.46757202571348 -26.664972680125874 5.561198189198776 -1.185959030939913 -24.059157031875575 53.369487512089144 15.041967789651524 29.435616872688673 -0.0 0.0 -0.0 11.322512210281582 2.2211097485679385 22.130427254810122 -0.0 0.0 -0.0 
116.13403690980199 94.91956676641747 26.826221133417306 -107.98678622284702 -79.58980878135213 -112.30104597061212 0.1430260714136068 0.0946282358773077 66.97844598815539 17.45565228124137 2.8093784281503074 18.150271386964594 -25.71435167817409 -5.3958764589081545 23.33050514358116 -0.0 0.0 -0.0 -13.324827012992918 -14.759246022760129 95.90647952292964 -3.8487186820533386 -0.17645001248602263 5.247970395957171 22.224059639691166 6.201675469134153 30.839220822445302 -0.0 0.0 -0.0 7.419208044772235 -5.3265802615157565 -71.31764953998488 6.309084659797697 -0.4355065287773174 -7.889772942111867 2.131112130906315 0.03316347700442694 1.7831316741533072 -8.000926638059706 -1.3359596413621004 18.92967020643967 -16.11895444793247 -26.78840885560053 -55.96032468685215 -86.74305239648245 -25.42871483016175 26.864373312789137 85.5886490942603 -43.735323318575745 -46.87312325486767 0.9097884732470604 0.48911517366355595 56.52894990503664 -0.0 0.0 -0.0 86.3344006741043 -37.4431424272705 -39.73057764394718 5.49984379884947 -1.234344736389907 -25.281025225752888 60.49799404915627 11.89666754056834 20.260230481295753 -0.0 0.0 -0.0 24.010784815062415 7.132880318536192 32.6711213164409 -0.0 0.0 -0.0 
109.3474698548944 95.50869685739467 28.2274057304245 -101.14331559031409 -74.83202731331322 -105.99436574050063 -1.3168828593672814 -0.9135506895728612 69.49857134696322 6.508956646493857 1.3375602332578738 23.201439155791647 -51.52714742105184 -1.4843902269579157 3.075030906156159 -0.0 0.0 -0.0 -11.67192133590294 -12.525570407044366 94.07105708835321 -4.974224260495852 -0.2179543755960799 5.014678891974802 24.09121852293792 7.433541421847829 33.86320725660189 -0.0 0.0 -0.0 8.317624517296355 -5.826428686397155 -69.97534673212442 5.089216785901373 -0.35232116924361645 -7.915420965214349 1.5805077877841798 0.027371193378589745 1.9846336715991013 -6.933904187879806 -1.0482386150432144 17.173077763812383 -16.68546314688639 -30.037129259771344 -57.88137455182662 -81.23840904749468 -30.47245846028712 35.23633010631482 80.70668145333325 -38.05749268973733 -44.18572683405284 -2.4530073434388733 -1.016443634522262 45.008725778572725 -0.0 0.0 -0.0 72.05141637886494 -36.92673013606025 -49.32187142156814 6.357518274757678 -1.655597031782337 -29.166300433129393 64.58225570481765 9.544927614372904 15.051645350476715 -0.0 0.0 -0.0 30.531104126120713 9.989454270106565 35.51298075426837 -0.0 0.0 -0.0 
102.56090279998679 96.09782694837186 29.628590327431695 -97.49511683636531 -67.55927758189691 -103.17255567785625 -2.3683365119710427 -1.73741552442101 72.52407143515016 -6.105794832888131 -1.3237733578185606 24.444096076263783 -50.95674648003493 6.564801208404421 -13.725841592260984 -0.0 0.0 -0.0 -9.427820366983052 -9.951596911751663 93.11115668149336 -5.544532337724474 -0.2404806942399595 4.963154336138012 22.89310973834082 8.025956336238808 38.21974493826601 -0.0 0.0 -0.0 10.572639060682077 -7.198135161307782 -68.41614724902544 3.86585985762597 -0.2688206538571674 -7.952779581637759 1.3021995878796142 0.025414270281813006 2.2365992720317176 -5.726356955528419 -0.8072327736780911 16.035067510526304 -16.07237036809349 -31.863038844736934 -57.183643275731406 -81.551428075888 -31.19537224442837 35.872390365562985 70.18177416208407 -35.12393376854439 -48.50027150029576 1.1972340948747187 0.41142072034845795 37.9306208549468 -0.0 0.0 -0.0 66.62281195046808 -33.06706899607661 -48.6191966733241 10.307198731342211 -3.2261470832285086 -34.68062654757175 64.68031816296474 11.180346190122183 17.575294644474805 -0.0 0.0 -0.0 38.42360291929224 11.938706551578257 33.40589945652326 -0.0 0.0 -0.0 
95.7743357450792 96.68695703934905 31.029774924438886 -95.78985357926948 -65.71745051484386 -101.89151997978306 1.0352215860417402 0.7281749641015983 70.24437330166487 10.118001440854082 2.2066430986400714 24.54698165240517 -20.320379803748384 -4.335675280933298 23.854024913525638 -0.0 0.0 -0.0 -8.675936279811609 -9.095233409508372 92.71405446282093 -7.314785725646539 -0.3394173967475082 5.306221676767487 29.067961871476175 7.70652148342073 29.127129740954558 -0.0 0.0 -0.0 11.120823820618662 -7.4917022643845455 -67.84345513197493 3.619450116553533 -0.2558972057345116 -8.085796408732062 2.1709432284080155 0.04961211604904718 2.618399593486642 -7.071534413209258 -0.924988921029497 14.886085419429092 -16.211830709476114 -33.62286601416152 -57.84794246211829 -78.20305847567685 -32.55597237428325 39.525768054159236 65.8473932782137 -33.13964484204653 -49.358489319557115 7.088209092144211 2.355332389714391 36.72353195668923 -0.0 0.0 -0.0 62.89295541276795 -32.63574733256961 -51.165235656686 10.101552130812715 -3.679294168896781 -39.943454674047466 66.34183114383329 10.705392323845208 16.314401033707572 -0.0 0.0 -0.0 1.4690899474779662 0.5253968349658743 39.36795877268152 -0.0 0.0 -0.0 
89.64518982673015 98.21520373890971 33.80202498449843 -97.5684871371714 -68.44489301794835 -102.76285367613369 -0.8205378117262678 -0.5783982987339602 70.35966575584004 5.9629337653724255 1.4058885324450636 26.51102112691722 -46.24353766759154 -1.882810082633886 4.407765021601183 -0.0 0.0 -0.0 -7.047940892570801 -7.183821972062702 91.09687361965453 -8.644977415643934 -0.45552001955158195 6.021068573811429 28.13986061126088 6.834221363632849 26.80147039424722 -0.0 0.0 -0.0 10.676306579051817 -7.1520585392320255 -67.55286046451609 3.2068438007051285 -0.21534686958402394 -7.681837508649633 1.667587336159021 0.04047248732655322 2.780953463377792 -6.285149589435449 -0.7462408709174806 13.528883842737892 -15.982656689508094 -39.14405023285043 -58.63681333371526 -77.8100482426264 -34.73102103611083 42.36157159353253 69.33760738698261 -31.51454061378197 -44.38842162453259 5.015724714205026 1.4179813550079048 31.55471649351378 -0.0 0.0 -0.0 55.907941251627854 -29.857722708136144 -53.351281576956325 13.571341771112643 -5.402608329895707 -43.25866634398566 65.81468620416562 8.922999212124042 13.750556572325465 -0.0 0.0 -0.0 15.686325870171652 5.645702225625125 39.39091824551505 -0.0 0.0 -0.0 
84.5369132511461 98.24830933211263 36.202252030977434 -97.39318852129703 -69.18919779993799 -102.16908169510867 -0.5370214395327156 -0.37100556121614325 69.27772748770462 13.761806554284188 3.239504591521116 26.376100287962483 -18.436337476765946 -3.496588155825537 21.3031277779146 -0.0 0.0 -0.0 -6.160955109995622 -6.225826517595436 90.60129770200253 -7.003401585356819 -0.31487042871992643 5.142138013988955 42.661252295981456 4.487290344449965 11.458683111715136 -0.0 0.0 -0.0 10.05970284924205 -6.718039916744576 -67.39725060042016 3.323491446467497 -0.22259709169289435 -7.661660574206778 2.2365398941990913 0.05840800530828298 2.9919717660921052 -7.250615491091693 -0.8179798328651863 12.856419459993795 -16.48588255469999 -41.43816625559764 -59.9088813714594 -77.58279719751434 -34.78921466002846 42.587555939220984 68.32490054015553 -31.33920572380158 -44.91532821122217 7.931924037498411 2.233625409136521 31.41063948902842 -0.0 0.0 -0.0 52.91594267290706 -28.992164548675458 -54.90548362057782 13.424826800949132 -5.838015223172933 -46.84940780707478 67.54188197778262 7.977745338327184 11.906393741924001 -0.0 0.0 -0.0 -10.466449215007147 -4.124158925540253 42.91868601342969 -0.0 0.0 -0.0 
